<svg width="158" height="158" viewBox="0 0 158 158" fill="none" xmlns="http://www.w3.org/2000/svg">
<g filter="url(#filter0_d_308_38)">
<g clip-path="url(#clip0_308_38)">
<rect x="4" width="150" height="150" rx="75" fill="#3B0000"/>
<g filter="url(#filter1_d_308_38)">
<circle cx="79" cy="75" r="75" fill="#710000"/>
<circle cx="79" cy="75" r="70" stroke="black" stroke-width="10"/>
</g>
<circle cx="79" cy="75" r="45" fill="#F9F9F9" stroke="black" stroke-width="10"/>
<path d="M102.548 58.1788C103.414 57.2816 103.894 56.08 103.883 54.8327C103.872 53.5854 103.372 52.3922 102.49 51.5102C101.608 50.6282 100.415 50.1279 99.1673 50.1171C97.92 50.1063 96.7183 50.5857 95.8211 51.4523L79 68.2734L62.1788 51.4523C61.74 50.9979 61.2151 50.6355 60.6347 50.3862C60.0543 50.1369 59.4301 50.0057 58.7984 50.0002C58.1668 49.9947 57.5404 50.1151 56.9558 50.3542C56.3711 50.5934 55.84 50.9467 55.3933 51.3933C54.9467 51.84 54.5934 52.3711 54.3542 52.9558C54.1151 53.5404 53.9947 54.1668 54.0002 54.7984C54.0057 55.4301 54.1369 56.0543 54.3862 56.6347C54.6355 57.2151 54.9979 57.74 55.4523 58.1788L72.2734 75L55.4523 91.8211C54.9979 92.26 54.6355 92.7849 54.3862 93.3653C54.1369 93.9457 54.0057 94.5699 54.0002 95.2015C53.9947 95.8332 54.1151 96.4596 54.3542 97.0442C54.5934 97.6289 54.9467 98.16 55.3933 98.6067C55.84 99.0533 56.3711 99.4066 56.9558 99.6458C57.5404 99.8849 58.1668 100.005 58.7984 99.9998C59.4301 99.9943 60.0543 99.8631 60.6347 99.6138C61.2151 99.3645 61.74 99.0021 62.1788 98.5477L79 81.7266L95.8211 98.5477C96.26 99.0021 96.7849 99.3645 97.3653 99.6138C97.9457 99.8631 98.5699 99.9943 99.2015 99.9998C99.8332 100.005 100.46 99.8849 101.044 99.6458C101.629 99.4066 102.16 99.0533 102.607 98.6067C103.053 98.16 103.407 97.6289 103.646 97.0442C103.885 96.4596 104.005 95.8332 104 95.2015C103.994 94.5699 103.863 93.9457 103.614 93.3653C103.364 92.7849 103.002 92.26 102.548 91.8211L85.7266 75L102.548 58.1788Z" fill="black"/>
</g>
<rect x="8" y="4" width="142" height="142" rx="71" stroke="#3F3F3F" stroke-opacity="0.28" stroke-width="8"/>
</g>
<defs>
<filter id="filter0_d_308_38" x="0" y="0" width="158" height="158" filterUnits="userSpaceOnUse" color-interpolation-filters="sRGB">
<feFlood flood-opacity="0" result="BackgroundImageFix"/>
<feColorMatrix in="SourceAlpha" type="matrix" values="0 0 0 0 0 0 0 0 0 0 0 0 0 0 0 0 0 0 127 0" result="hardAlpha"/>
<feOffset dy="4"/>
<feGaussianBlur stdDeviation="2"/>
<feComposite in2="hardAlpha" operator="out"/>
<feColorMatrix type="matrix" values="0 0 0 0 0 0 0 0 0 0 0 0 0 0 0 0 0 0 0.25 0"/>
<feBlend mode="normal" in2="BackgroundImageFix" result="effect1_dropShadow_308_38"/>
<feBlend mode="normal" in="SourceGraphic" in2="effect1_dropShadow_308_38" result="shape"/>
</filter>
<filter id="filter1_d_308_38" x="0" y="0" width="158" height="158" filterUnits="userSpaceOnUse" color-interpolation-filters="sRGB">
<feFlood flood-opacity="0" result="BackgroundImageFix"/>
<feColorMatrix in="SourceAlpha" type="matrix" values="0 0 0 0 0 0 0 0 0 0 0 0 0 0 0 0 0 0 127 0" result="hardAlpha"/>
<feOffset dy="4"/>
<feGaussianBlur stdDeviation="2"/>
<feComposite in2="hardAlpha" operator="out"/>
<feColorMatrix type="matrix" values="0 0 0 0 0 0 0 0 0 0 0 0 0 0 0 0 0 0 0.25 0"/>
<feBlend mode="normal" in2="BackgroundImageFix" result="effect1_dropShadow_308_38"/>
<feBlend mode="normal" in="SourceGraphic" in2="effect1_dropShadow_308_38" result="shape"/>
</filter>
<clipPath id="clip0_308_38">
<rect x="4" width="150" height="150" rx="75" fill="white"/>
</clipPath>
</defs>
</svg>
